<svg width="28" height="28" viewBox="0 0 28 28" fill="none" xmlns="http://www.w3.org/2000/svg">
<path d="M13.136 1.95905C13.6261 1.51442 14.3736 1.51442 14.8637 1.95905L17.1285 4.0139C17.3778 4.24004 17.7058 4.35943 18.0421 4.34641L21.0979 4.22812C21.7591 4.20252 22.3317 4.68303 22.4214 5.33864L22.8355 8.36856C22.8811 8.70202 23.0556 9.0043 23.3216 9.2105L25.7385 11.0841C26.2615 11.4895 26.3913 12.2257 26.0385 12.7855L24.4082 15.3728C24.2288 15.6575 24.1681 16.0013 24.2394 16.3302L24.8865 19.3191C25.0265 19.9658 24.6527 20.6132 24.0227 20.8153L21.1107 21.7493C20.7902 21.852 20.5228 22.0764 20.3659 22.3742L18.9405 25.0797C18.632 25.6651 17.9296 25.9208 17.317 25.6706L14.4859 24.5143C14.1744 24.3871 13.8253 24.3871 13.5138 24.5143L10.6827 25.6706C10.0701 25.9208 9.36766 25.6651 9.05922 25.0797L7.63375 22.3742C7.47688 22.0764 7.20949 21.852 6.88901 21.7493L3.97704 20.8153C3.34695 20.6132 2.97318 19.9658 3.11321 19.3191L3.76033 16.3302C3.83155 16.0013 3.77094 15.6575 3.59151 15.3728L1.96117 12.7855C1.6084 12.2257 1.7382 11.4895 2.26117 11.0841L4.67809 9.2105C4.94409 9.0043 5.11861 8.70202 5.16419 8.36856L5.57833 5.33864C5.66794 4.68303 6.24058 4.20252 6.9018 4.22812L9.95761 4.34641C10.2939 4.35943 10.6219 4.24004 10.8712 4.0139L13.136 1.95905Z" fill="#EE2A74"/>
<path d="M12.8333 8.16667C12.8333 7.52233 13.3557 7 14 7V7C14.6443 7 15.1667 7.52233 15.1667 8.16667V12.8333C15.1667 13.4777 14.6443 14 14 14V14C13.3557 14 12.8333 13.4777 12.8333 12.8333V8.16667Z" fill="white"/>
<path d="M12.25 18.0833C12.25 17.1168 13.0335 16.3333 14 16.3333V16.3333C14.9665 16.3333 15.75 17.1168 15.75 18.0833V18.0833C15.75 19.0498 14.9665 19.8333 14 19.8333V19.8333C13.0335 19.8333 12.25 19.0498 12.25 18.0833V18.0833Z" fill="white"/>
</svg>
