<svg width="88" height="16" viewBox="0 0 88 16" fill="none" xmlns="http://www.w3.org/2000/svg">
<path d="M7.52772 1.35869C7.68337 0.910913 8.31663 0.910914 8.47228 1.35869L9.76668 5.0825C9.83534 5.28004 10.0197 5.41397 10.2288 5.41823L14.1703 5.49856C14.6443 5.50822 14.84 6.11049 14.4622 6.39689L11.3206 8.77865C11.154 8.905 11.0836 9.12171 11.1441 9.32188L12.2857 13.0953C12.423 13.5491 11.9107 13.9213 11.5216 13.6505L8.28559 11.3987C8.11393 11.2793 7.88607 11.2793 7.71441 11.3987L4.47842 13.6505C4.0893 13.9213 3.57698 13.5491 3.71425 13.0953L4.85587 9.32188C4.91643 9.12171 4.84601 8.905 4.67936 8.77865L1.5378 6.39689C1.16003 6.11049 1.35572 5.50822 1.82969 5.49856L5.77123 5.41823C5.98031 5.41397 6.16466 5.28004 6.23332 5.0825L7.52772 1.35869Z" fill="#FFA300"/>
<path d="M25.5277 1.35869C25.6834 0.910913 26.3166 0.910914 26.4723 1.35869L27.7667 5.0825C27.8353 5.28004 28.0197 5.41397 28.2288 5.41823L32.1703 5.49856C32.6443 5.50822 32.84 6.11049 32.4622 6.39689L29.3206 8.77865C29.154 8.905 29.0836 9.12171 29.1441 9.32188L30.2857 13.0953C30.423 13.5491 29.9107 13.9213 29.5216 13.6505L26.2856 11.3987C26.1139 11.2793 25.8861 11.2793 25.7144 11.3987L22.4784 13.6505C22.0893 13.9213 21.577 13.5491 21.7143 13.0953L22.8559 9.32188C22.9164 9.12171 22.846 8.905 22.6794 8.77865L19.5378 6.39689C19.16 6.11049 19.3557 5.50822 19.8297 5.49856L23.7712 5.41823C23.9803 5.41397 24.1647 5.28004 24.2333 5.0825L25.5277 1.35869Z" fill="#FFA300"/>
<path d="M43.5277 1.35869C43.6834 0.910913 44.3166 0.910914 44.4723 1.35869L45.7667 5.0825C45.8353 5.28004 46.0197 5.41397 46.2288 5.41823L50.1703 5.49856C50.6443 5.50822 50.84 6.11049 50.4622 6.39689L47.3206 8.77865C47.154 8.905 47.0836 9.12171 47.1441 9.32188L48.2857 13.0953C48.423 13.5491 47.9107 13.9213 47.5216 13.6505L44.2856 11.3987C44.1139 11.2793 43.8861 11.2793 43.7144 11.3987L40.4784 13.6505C40.0893 13.9213 39.577 13.5491 39.7143 13.0953L40.8559 9.32188C40.9164 9.12171 40.846 8.905 40.6794 8.77865L37.5378 6.39689C37.16 6.11049 37.3557 5.50822 37.8297 5.49856L41.7712 5.41823C41.9803 5.41397 42.1647 5.28004 42.2333 5.0825L43.5277 1.35869Z" fill="#FFA300"/>
<path d="M61.5277 1.35869C61.6834 0.910913 62.3166 0.910914 62.4723 1.35869L63.7667 5.0825C63.8353 5.28004 64.0197 5.41397 64.2288 5.41823L68.1703 5.49856C68.6443 5.50822 68.84 6.11049 68.4622 6.39689L65.3206 8.77865C65.154 8.905 65.0836 9.12171 65.1441 9.32188L66.2857 13.0953C66.423 13.5491 65.9107 13.9213 65.5216 13.6505L62.2856 11.3987C62.1139 11.2793 61.8861 11.2793 61.7144 11.3987L58.4784 13.6505C58.0893 13.9213 57.577 13.5491 57.7143 13.0953L58.8559 9.32188C58.9164 9.12171 58.846 8.905 58.6794 8.77865L55.5378 6.39689C55.16 6.11049 55.3557 5.50822 55.8297 5.49856L59.7712 5.41823C59.9803 5.41397 60.1647 5.28004 60.2333 5.0825L61.5277 1.35869Z" fill="#FFA300"/>
<path d="M79.5277 1.35869C79.6834 0.910913 80.3166 0.910914 80.4723 1.35869L81.7667 5.0825C81.8353 5.28004 82.0197 5.41397 82.2288 5.41823L86.1703 5.49856C86.6443 5.50822 86.84 6.11049 86.4622 6.39689L83.3206 8.77865C83.154 8.905 83.0836 9.12171 83.1441 9.32188L84.2857 13.0953C84.423 13.5491 83.9107 13.9213 83.5216 13.6505L80.2856 11.3987C80.1139 11.2793 79.8861 11.2793 79.7144 11.3987L76.4784 13.6505C76.0893 13.9213 75.577 13.5491 75.7143 13.0953L76.8559 9.32188C76.9164 9.12171 76.846 8.905 76.6794 8.77865L73.5378 6.39689C73.16 6.11049 73.3557 5.50822 73.8297 5.49856L77.7712 5.41823C77.9803 5.41397 78.1647 5.28004 78.2333 5.0825L79.5277 1.35869Z" fill="#CDC9CF"/>
</svg>
