<svg width="28" height="28" viewBox="0 0 28 28" fill="none" xmlns="http://www.w3.org/2000/svg">
<path d="M6 21C6 20.4477 6.44772 20 7 20C7.55228 20 8 20.4477 8 21V23C8 23.5523 7.55228 24 7 24C6.44772 24 6 23.5523 6 23V21Z" fill="#1A1A1A"/>
<path d="M20 21C20 20.4477 20.4477 20 21 20C21.5523 20 22 20.4477 22 21V23C22 23.5523 21.5523 24 21 24C20.4477 24 20 23.5523 20 23V21Z" fill="#1A1A1A"/>
<path fill-rule="evenodd" clip-rule="evenodd" d="M7 17V14.5C7 13.6716 6.32843 13 5.5 13C4.67157 13 4 13.6716 4 14.5V20H24V14.5C24 13.6716 23.3284 13 22.5 13C21.6716 13 21 13.6716 21 14.5V17H7ZM9 15V14.5C9 12.567 7.433 11 5.5 11C3.567 11 2 12.567 2 14.5V21C2 21.5523 2.44772 22 3 22H25C25.5523 22 26 21.5523 26 21V14.5C26 12.567 24.433 11 22.5 11C20.567 11 19 12.567 19 14.5V15H9Z" fill="#1A1A1A"/>
<path fill-rule="evenodd" clip-rule="evenodd" d="M4 7C4 5.89543 4.89543 5 6 5H22C23.1046 5 24 5.89543 24 7V12H22V7H6V12H4V7Z" fill="#1A1A1A"/>
</svg>
