<svg width="28" height="28" viewBox="0 0 28 28" fill="none" xmlns="http://www.w3.org/2000/svg">
<path fill-rule="evenodd" clip-rule="evenodd" d="M11.8851 24.6646C13.2396 24.6801 14.5801 24.6088 15.7553 24.4609C16.8502 24.3232 17.7191 24.1292 18.3053 23.9167C18.2966 23.9135 18.2878 23.9104 18.279 23.9072C17.6219 23.6732 16.6392 23.4677 15.4189 23.3326C14.2084 23.1987 12.8522 23.1437 11.5037 23.1754C10.154 23.2072 8.88237 23.3243 7.83054 23.509C6.75011 23.6987 6.04026 23.9364 5.69355 24.1418C5.21838 24.4233 4.60499 24.2663 4.3235 23.7911C4.04201 23.316 4.19901 22.7026 4.67418 22.4211C5.34095 22.0261 6.34312 21.7396 7.4846 21.5391C8.65468 21.3336 10.0286 21.2096 11.4566 21.176C12.8858 21.1423 14.3317 21.2001 15.6389 21.3448C16.9363 21.4883 18.089 21.7164 18.9501 22.0232C19.3773 22.1754 19.7751 22.3615 20.091 22.5968C20.3887 22.8185 20.761 23.1963 20.8245 23.7591C20.8926 24.3629 20.5706 24.8163 20.2736 25.0865C19.9779 25.3556 19.5922 25.5586 19.1921 25.7188C18.3815 26.0434 17.2685 26.2863 16.005 26.4453C14.7287 26.6059 13.2964 26.6809 11.8622 26.6644C11.3099 26.6581 10.8674 26.2053 10.8737 25.653C10.88 25.1008 11.3329 24.6582 11.8851 24.6646Z" fill="#1A1A1A"/>
<path fill-rule="evenodd" clip-rule="evenodd" d="M10.6769 1.02399C10.7557 0.477352 11.2627 0.0980959 11.8093 0.176894C13.814 0.465864 15.5157 1.10602 16.9968 2.22439C18.4698 3.33664 19.6644 4.87641 20.7289 6.87257C21.474 8.26971 21.8125 10.0398 21.9369 11.825C22.0625 13.6267 21.9754 15.5329 21.8085 17.2594C21.6412 18.9893 21.3916 20.5606 21.1841 21.6986C21.0803 22.2682 20.9867 22.7309 20.9188 23.0525C20.8848 23.2134 20.8572 23.339 20.8379 23.4253C20.8283 23.4684 20.8207 23.5017 20.8155 23.5246L20.8094 23.5511L20.8072 23.5605C20.8071 23.5608 20.8069 23.5616 19.8333 23.3333L20.8069 23.5616C20.6808 24.0993 20.1427 24.433 19.605 24.3069C19.0674 24.1808 18.7337 23.6428 18.8597 23.1052L18.8611 23.0994L18.866 23.0779L18.8861 22.9891C18.9037 22.9101 18.9297 22.792 18.9619 22.6392C19.0265 22.3335 19.1164 21.8891 19.2166 21.3398C19.4171 20.24 19.6574 18.7262 19.8178 17.0669C19.9786 15.4041 20.057 13.6168 19.9418 11.9641C19.8254 10.295 19.5167 8.84973 18.9642 7.8137C17.9885 5.9841 16.9633 4.70523 15.7916 3.82049C14.628 2.94187 13.2599 2.40666 11.524 2.15643C10.9774 2.07763 10.5981 1.57062 10.6769 1.02399Z" fill="#1A1A1A"/>
<path fill-rule="evenodd" clip-rule="evenodd" d="M11.6667 0.166656C12.219 0.166656 12.6667 0.614372 12.6667 1.16666V5.83332C12.6667 6.38561 12.219 6.83332 11.6667 6.83332C11.1144 6.83332 10.6667 6.38561 10.6667 5.83332V1.16666C10.6667 0.614372 11.1144 0.166656 11.6667 0.166656Z" fill="#1A1A1A"/>
<path d="M11.0833 3.5L12.4343 4.12438C16.3333 5.83333 15.6814 12.3798 14.4541 15.8183C13.371 18.8524 10.0334 20.4341 6.99924 19.3511L3.5 18.0833L11.0833 3.5Z" fill="white"/>
<path fill-rule="evenodd" clip-rule="evenodd" d="M12.4343 4.12438L11.0833 3.5L3.5 18.0833L6.99924 19.3511C10.0334 20.4341 13.371 18.8524 14.4541 15.8183C15.6814 12.3798 16.3333 5.83333 12.4343 4.12438ZM6.32767 16.9806L7.67561 17.469C9.66841 18.1778 11.8592 17.1385 12.5705 15.1459C13.1079 13.6403 13.5186 11.4255 13.3722 9.47232C13.2392 7.69952 12.7106 6.64612 11.9646 6.14024L6.32767 16.9806Z" fill="#1A1A1A"/>
<path d="M11.0826 3.5C14.5825 3.50019 9.14062 20.1985 3.49936 18.0833C-2.14196 15.9681 7.30094 3.49979 11.0826 3.5Z" fill="white"/>
<path fill-rule="evenodd" clip-rule="evenodd" d="M3.83582 15.9481C3.86152 15.999 3.91814 16.1044 4.20152 16.2106C4.50256 16.3235 5.09274 16.3483 6.13134 15.2937C7.13305 14.2766 8.11185 12.6431 8.87258 10.8161C9.63091 8.9949 10.0855 7.19148 10.1723 5.93797C10.1725 5.93613 10.1726 5.9343 10.1727 5.93246C9.78255 6.18142 9.33478 6.5265 8.85058 6.96442C7.66641 8.03543 6.42358 9.51689 5.45001 11.0637C4.45203 12.6494 3.867 14.0979 3.76199 15.1173C3.71161 15.6063 3.78687 15.8511 3.83582 15.9481ZM11.0826 3.5C14.5825 3.50019 9.14062 20.1985 3.49936 18.0833C-2.14196 15.9681 7.30094 3.49979 11.0826 3.5Z" fill="#1A1A1A"/>
</svg>
