<svg width="28" height="28" viewBox="0 0 28 28" fill="none" xmlns="http://www.w3.org/2000/svg">
<path d="M15.75 13.4167C15.75 14.3832 14.9665 15.1667 14 15.1667C13.0335 15.1667 12.25 14.3832 12.25 13.4167C12.25 12.4502 13.0335 11.6667 14 11.6667C14.9665 11.6667 15.75 12.4502 15.75 13.4167Z" fill="#1A1A1A"/>
<path fill-rule="evenodd" clip-rule="evenodd" d="M14 14.1667C14.4142 14.1667 14.75 13.8309 14.75 13.4167C14.75 13.0025 14.4142 12.6667 14 12.6667C13.5858 12.6667 13.25 13.0025 13.25 13.4167C13.25 13.8309 13.5858 14.1667 14 14.1667ZM14 15.1667C14.9665 15.1667 15.75 14.3832 15.75 13.4167C15.75 12.4502 14.9665 11.6667 14 11.6667C13.0335 11.6667 12.25 12.4502 12.25 13.4167C12.25 14.3832 13.0335 15.1667 14 15.1667Z" fill="#1A1A1A"/>
<path fill-rule="evenodd" clip-rule="evenodd" d="M1.83719 9.63174C2.31671 9.35773 2.92757 9.52433 3.20158 10.0038L7.6327 17.7583C11.8485 18.4606 16.1515 18.4606 20.3673 17.7583L24.7984 10.0038C25.0724 9.52433 25.6833 9.35773 26.1628 9.63174C26.6423 9.90575 26.8089 10.5166 26.5349 10.9961L22.1023 18.7532C21.8051 19.2732 21.2899 19.6321 20.699 19.7306C16.2636 20.4698 11.7364 20.4698 7.30096 19.7306C6.71012 19.6321 6.19487 19.2732 5.89769 18.7532L1.46509 10.9961C1.19108 10.5166 1.35768 9.90575 1.83719 9.63174ZM20.3659 17.7608C20.3659 17.7608 20.3658 17.7609 20.3658 17.7609L20.3713 17.764L20.3658 17.7609L20.3659 17.7608Z" fill="#1A1A1A"/>
<path fill-rule="evenodd" clip-rule="evenodd" d="M14 2.5C14.5523 2.5 15 2.94772 15 3.5V7C15 7.55228 14.5523 8 14 8C13.4477 8 13 7.55228 13 7V3.5C13 2.94772 13.4477 2.5 14 2.5Z" fill="#1A1A1A"/>
<path fill-rule="evenodd" clip-rule="evenodd" d="M21.1179 4.8976C21.6348 5.0921 21.8962 5.66881 21.7017 6.18571L20.5968 9.12205C20.4023 9.63896 19.8256 9.90032 19.3087 9.70582C18.7918 9.51132 18.5304 8.93461 18.7249 8.41771L19.8298 5.48137C20.0243 4.96446 20.601 4.7031 21.1179 4.8976Z" fill="#1A1A1A"/>
<path fill-rule="evenodd" clip-rule="evenodd" d="M6.88031 4.89741C7.39722 4.70294 7.97391 4.96433 8.16838 5.48125L9.27327 8.41816C9.46774 8.93508 9.20634 9.51176 8.68942 9.70623C8.17251 9.9007 7.59582 9.6393 7.40135 9.12239L6.29646 6.18548C6.102 5.66856 6.36339 5.09187 6.88031 4.89741Z" fill="#1A1A1A"/>
<path fill-rule="evenodd" clip-rule="evenodd" d="M12.9871 5.62309C13.4044 4.78839 14.5956 4.7884 15.0129 5.62309L15.4131 6.42339C16.1077 7.81256 17.8626 8.27861 19.1549 7.41708C19.7798 7.00048 20.6294 7.31277 20.8357 8.03491L21 8.60992C21.4465 10.1726 22.8748 11.25 24.5 11.25V13.25C22.1377 13.25 20.0438 11.7809 19.2226 9.60003C17.3293 10.2583 15.185 9.59845 14 7.942C12.815 9.59845 10.6707 10.2583 8.77742 9.60003C7.95617 11.7809 5.86234 13.25 3.5 13.25V11.25C5.12521 11.25 6.55352 10.1726 7 8.60992L7.16429 8.03491C7.37062 7.31277 8.2202 7.00048 8.8451 7.41708C10.1374 8.27861 11.8923 7.81256 12.5869 6.42338L12.9871 5.62309Z" fill="#1A1A1A"/>
<path fill-rule="evenodd" clip-rule="evenodd" d="M21.0278 23.4978C21.1186 24.0426 20.7507 24.559 20.204 24.6373C16.0893 25.2268 11.9115 25.2268 7.7968 24.6373C7.25009 24.559 6.8822 24.0426 6.97299 23.4978L7.02779 23.169C7.11859 22.6243 7.63369 22.2575 8.18049 22.3351C12.0411 22.8831 15.9597 22.8831 19.8203 22.3351C20.3671 22.2575 20.8822 22.6243 20.973 23.169L21.0278 23.4978Z" fill="#1A1A1A"/>
</svg>
