<svg width="28" height="28" viewBox="0 0 28 28" fill="none" xmlns="http://www.w3.org/2000/svg">
<path d="M0 4C0 1.79086 1.79086 0 4 0H24C26.2091 0 28 1.79086 28 4V24C28 26.2091 26.2091 28 24 28H4C1.79086 28 0 26.2091 0 24V4Z"/>
<path fill-rule="evenodd" clip-rule="evenodd" d="M19 9H9C6.23858 9 4 11.2386 4 14C4 16.7614 6.23858 19 9 19H19C21.7614 19 24 16.7614 24 14C24 11.2386 21.7614 9 19 9ZM9 7C5.13401 7 2 10.134 2 14C2 17.866 5.13401 21 9 21H19C22.866 21 26 17.866 26 14C26 10.134 22.866 7 19 7H9Z" fill="#1A1A1A"/>
<path d="M19.5 15.5C18.6716 15.5 18 14.8284 18 14C18 13.1716 18.6716 12.5 19.5 12.5C20.3284 12.5 21 13.1716 21 14C21 14.8284 20.3284 15.5 19.5 15.5Z" fill="#1A1A1A"/>
<path d="M14 15.5C13.1716 15.5 12.5 14.8284 12.5 14C12.5 13.1716 13.1716 12.5 14 12.5C14.8284 12.5 15.5 13.1716 15.5 14C15.5 14.8284 14.8284 15.5 14 15.5Z" fill="#1A1A1A"/>
<path d="M8.5 15.5C7.67157 15.5 7 14.8284 7 14C7 13.1716 7.67157 12.5 8.5 12.5C9.32843 12.5 10 13.1716 10 14C10 14.8284 9.32843 15.5 8.5 15.5Z" fill="#1A1A1A"/>
</svg>
