<svg width="28" height="28" viewBox="0 0 28 28" fill="none" xmlns="http://www.w3.org/2000/svg">
<path d="M0 4C0 1.79086 1.79086 0 4 0H24C26.2091 0 28 1.79086 28 4V24C28 26.2091 26.2091 28 24 28H4C1.79086 28 0 26.2091 0 24V4Z"/>
<path fill-rule="evenodd" clip-rule="evenodd" d="M11 6H4V23H11V6ZM4 4C2.89543 4 2 4.89543 2 6V23C2 24.1046 2.89543 25 4 25H11C12.1046 25 13 24.1046 13 23V6C13 4.89543 12.1046 4 11 4H4Z" fill="#1A1A1A"/>
<path d="M11 13H10C9.44772 13 9 13.4477 9 14V17C9 17.5523 9.44772 18 10 18H11V13Z" fill="#1A1A1A"/>
<path d="M16 22C16 21.4477 16.4477 21 17 21C17.5523 21 18 21.4477 18 22V24C18 24.5523 17.5523 25 17 25C16.4477 25 16 24.5523 16 24V22Z" fill="#1A1A1A"/>
<path d="M23 22C23 21.4477 23.4477 21 24 21C24.5523 21 25 21.4477 25 22V24C25 24.5523 24.5523 25 24 25C23.4477 25 23 24.5523 23 24V22Z" fill="#1A1A1A"/>
<path fill-rule="evenodd" clip-rule="evenodd" d="M17 18V21H24V18H17ZM16 16C15.4477 16 15 16.4477 15 17V22C15 22.5523 15.4477 23 16 23H25C25.5523 23 26 22.5523 26 22V17C26 16.4477 25.5523 16 25 16H16Z" fill="#1A1A1A"/>
<path d="M15 10C15 9.44772 15.4477 9 16 9H22C22.5523 9 23 9.44772 23 10C23 10.5523 22.5523 11 22 11H16C15.4477 11 15 10.5523 15 10Z" fill="#1A1A1A"/>
<path d="M18 6C18 5.44772 18.4477 5 19 5H25C25.5523 5 26 5.44772 26 6C26 6.55228 25.5523 7 25 7H19C18.4477 7 18 6.55228 18 6Z" fill="#1A1A1A"/>
</svg>
