<svg width="28" height="28" viewBox="0 0 28 28" fill="none" xmlns="http://www.w3.org/2000/svg">
<path d="M0 4C0 1.79086 1.79086 0 4 0H24C26.2091 0 28 1.79086 28 4V24C28 26.2091 26.2091 28 24 28H4C1.79086 28 0 26.2091 0 24V4Z"/>
<path fill-rule="evenodd" clip-rule="evenodd" d="M23 6H5V14H23V6ZM5 4C3.89543 4 3 4.89543 3 6V16H25V6C25 4.89543 24.1046 4 23 4H5Z" fill="#1A1A1A"/>
<path d="M5 21C5 20.4477 5.44772 20 6 20C6.55228 20 7 20.4477 7 21V24C7 24.5523 6.55228 25 6 25C5.44772 25 5 24.5523 5 24V21Z" fill="#1A1A1A"/>
<path d="M21 21C21 20.4477 21.4477 20 22 20C22.5523 20 23 20.4477 23 21V24C23 24.5523 22.5523 25 22 25C21.4477 25 21 24.5523 21 24V21Z" fill="#1A1A1A"/>
<path fill-rule="evenodd" clip-rule="evenodd" d="M13 13C13 12.4477 12.5523 12 12 12H8C7.44772 12 7 12.4477 7 13V14H13V13Z" fill="#1A1A1A"/>
<path fill-rule="evenodd" clip-rule="evenodd" d="M21 13C21 12.4477 20.5523 12 20 12H16C15.4477 12 15 12.4477 15 13V14H21V13Z" fill="#1A1A1A"/>
<path fill-rule="evenodd" clip-rule="evenodd" d="M3 16V20H25V16H3ZM2 14C1.44772 14 1 14.4477 1 15V21C1 21.5523 1.44772 22 2 22H26C26.5523 22 27 21.5523 27 21V15C27 14.4477 26.5523 14 26 14H2Z" fill="#1A1A1A"/>
</svg>
