<svg width="28" height="28" viewBox="0 0 28 28" fill="none" xmlns="http://www.w3.org/2000/svg">
<path fill-rule="evenodd" clip-rule="evenodd" d="M14 17.6667C14.5523 17.6667 15 18.1144 15 18.6667L15 25.6667C15 26.2189 14.5523 26.6667 14 26.6667C13.4477 26.6667 13 26.2189 13 25.6667L13 18.6667C13 18.1144 13.4477 17.6667 14 17.6667Z" fill="#1A1A1A"/>
<path fill-rule="evenodd" clip-rule="evenodd" d="M20.8139 24.6961C20.7056 25.2377 20.1788 25.5889 19.6372 25.4806L15.3728 24.6277C14.4666 24.4464 13.5334 24.4464 12.6272 24.6277L8.36278 25.4806C7.82122 25.5889 7.2944 25.2377 7.18609 24.6961C7.07777 24.1546 7.42899 23.6277 7.97055 23.5194L12.235 22.6665C13.4001 22.4335 14.5999 22.4335 15.765 22.6665L20.0294 23.5194C20.571 23.6277 20.9222 24.1546 20.8139 24.6961Z" fill="#1A1A1A"/>
<path fill-rule="evenodd" clip-rule="evenodd" d="M5.55333 13.04C6.08353 12.8853 6.63869 13.1898 6.79333 13.72L7.48604 16.095C7.57865 16.4125 7.84543 16.6486 8.17187 16.7019C12.0317 17.3321 15.9683 17.3321 19.8281 16.7019C20.1546 16.6486 20.4213 16.4125 20.514 16.095L21.2067 13.72C21.3613 13.1898 21.9165 12.8853 22.4467 13.04C22.9769 13.1946 23.2813 13.7498 23.1267 14.28L22.434 16.655C22.1256 17.7122 21.2373 18.4983 20.1504 18.6757C16.0771 19.3408 11.9229 19.3408 7.8496 18.6757C6.7627 18.4983 5.8744 17.7122 5.56604 16.655L4.87333 14.28C4.71869 13.7498 5.02314 13.1946 5.55333 13.04Z" fill="#1A1A1A"/>
<path fill-rule="evenodd" clip-rule="evenodd" d="M18.8264 3.16666H9.1736L10.0342 13.4936C12.6581 13.9522 15.3419 13.9522 17.9658 13.4936L18.8264 3.16666ZM9.1736 1.16666C8.00352 1.16666 7.08334 2.16671 7.18051 3.33275L8.08844 14.2279C8.13477 14.7838 8.54336 15.242 9.09035 15.3514C12.3314 15.9996 15.6686 15.9996 18.9096 15.3514C19.4566 15.242 19.8652 14.7838 19.9116 14.2279L20.8195 3.33275C20.9167 2.16671 19.9965 1.16666 18.8264 1.16666H9.1736Z" fill="#1A1A1A"/>
<path fill-rule="evenodd" clip-rule="evenodd" d="M21.1667 14C21.1667 13.4477 21.6144 13 22.1667 13H23.3333C23.8856 13 24.3333 13.4477 24.3333 14C24.3333 14.5523 23.8856 15 23.3333 15H22.1667C21.6144 15 21.1667 14.5523 21.1667 14Z" fill="#1A1A1A"/>
<path fill-rule="evenodd" clip-rule="evenodd" d="M3.66667 14C3.66667 13.4477 4.11438 13 4.66667 13H5.83333C6.38562 13 6.83333 13.4477 6.83333 14C6.83333 14.5523 6.38562 15 5.83333 15H4.66667C4.11438 15 3.66667 14.5523 3.66667 14Z" fill="#1A1A1A"/>
</svg>
