<svg width="28" height="28" viewBox="0 0 28 28" fill="none" xmlns="http://www.w3.org/2000/svg">
<path d="M0 4C0 1.79086 1.79086 0 4 0H24C26.2091 0 28 1.79086 28 4V24C28 26.2091 26.2091 28 24 28H4C1.79086 28 0 26.2091 0 24V4Z"/>
<path d="M6 25V22H4V25C4 25.5523 4.44772 26 5 26C5.55228 26 6 25.5523 6 25Z" fill="#1A1A1A"/>
<path d="M11 25V22H9V25C9 25.5523 9.44772 26 10 26C10.5523 26 11 25.5523 11 25Z" fill="#1A1A1A"/>
<path d="M19 25V22H17V25C17 25.5523 17.4477 26 18 26C18.5523 26 19 25.5523 19 25Z" fill="#1A1A1A"/>
<path d="M24 25V22H22V25C22 25.5523 22.4477 26 23 26C23.5523 26 24 25.5523 24 25Z" fill="#1A1A1A"/>
<path fill-rule="evenodd" clip-rule="evenodd" d="M4 14V22H24V14H4ZM3 12C2.44772 12 2 12.4477 2 13V23C2 23.5523 2.44772 24 3 24H25C25.5523 24 26 23.5523 26 23V13C26 12.4477 25.5523 12 25 12H3Z" fill="#1A1A1A"/>
<path fill-rule="evenodd" clip-rule="evenodd" d="M17 17C16.4477 17 16 17.4477 16 18C16 18.5523 16.4477 19 17 19H21C21.5523 19 22 18.5523 22 18C22 17.4477 21.5523 17 21 17H17Z" fill="#1A1A1A"/>
<path d="M7 16C7 15.4477 7.44772 15 8 15H10C10.5523 15 11 15.4477 11 16C11 16.5523 10.5523 17 10 17H8C7.44772 17 7 16.5523 7 16Z" fill="#1A1A1A"/>
<path fill-rule="evenodd" clip-rule="evenodd" d="M18.4 3V4C18.4 4.82103 18.0635 5.60619 17.469 6.17241L16.6 7H23.4L22.531 6.17241C21.9365 5.60619 21.6 4.82103 21.6 4V3H18.4ZM17.4 1C16.8477 1 16.4 1.44771 16.4 2V4C16.4 4.27368 16.2878 4.5354 16.0897 4.72414L14.3103 6.41872C14.1122 6.60746 14 6.86918 14 7.14286V8C14 8.55229 14.4477 9 15 9H25C25.5523 9 26 8.55228 26 8V7.14286C26 6.86918 25.8878 6.60746 25.6897 6.41872L23.9103 4.72414C23.7122 4.5354 23.6 4.27368 23.6 4V2C23.6 1.44772 23.1523 1 22.6 1H17.4Z" fill="#1A1A1A"/>
<path d="M6 11C6 10.4477 6.44772 10 7 10H11C11.5523 10 12 10.4477 12 11C12 11.5523 11.5523 12 11 12H7C6.44772 12 6 11.5523 6 11Z" fill="#1A1A1A"/>
</svg>
