<svg width="29" height="18" viewBox="0 0 29 18" fill="none" xmlns="http://www.w3.org/2000/svg">
<path d="M18.7512 2.07013H10.2511V15.928H18.7512V2.07013Z" fill="#FF5F00"/>
<path d="M11.1267 8.99996C11.1257 7.66557 11.4287 6.34842 12.0129 5.1482C12.5971 3.94797 13.4472 2.89612 14.4988 2.07224C13.1963 1.05052 11.6322 0.415172 9.98511 0.238811C8.33803 0.0624511 6.67447 0.352195 5.18455 1.07493C3.69464 1.79766 2.43849 2.92422 1.55966 4.32586C0.680829 5.7275 0.214783 7.34766 0.214783 9.00118C0.214783 10.6547 0.680829 12.2749 1.55966 13.6765C2.43849 15.0781 3.69464 16.2047 5.18455 16.9274C6.67447 17.6502 8.33803 17.9399 9.98511 17.7635C11.6322 17.5872 13.1963 16.9518 14.4988 15.9301C13.4469 15.106 12.5966 14.0537 12.0124 12.8531C11.4282 11.6524 11.1253 10.3348 11.1267 8.99996Z" fill="#EB001B"/>
<path d="M27.9408 14.4612V14.1773H28.0634V14.1185H27.7715V14.1773H27.8868V14.4612H27.9408ZM28.5073 14.4612V14.1185H28.419L28.316 14.3633L28.213 14.1185H28.1247V14.4612H28.1885V14.2018L28.2841 14.4245H28.3503L28.446 14.2018V14.4612H28.5073Z" fill="#F79E1B"/>
<path d="M28.7838 9.00019C28.7838 10.6538 28.3176 12.2741 27.4386 13.6758C26.5597 15.0775 25.3033 16.204 23.8132 16.9266C22.3231 17.6493 20.6594 17.9388 19.0122 17.7622C17.365 17.5856 15.8009 16.9499 14.4985 15.9279C15.5497 15.1033 16.3995 14.0512 16.9839 12.8509C17.5683 11.6506 17.8719 10.3335 17.8719 8.99896C17.8719 7.66445 17.5683 6.34736 16.9839 5.14707C16.3995 3.94678 15.5497 2.89464 14.4985 2.07003C15.8009 1.04799 17.365 0.412327 19.0122 0.235714C20.6594 0.0591003 22.3231 0.348658 23.8132 1.07129C25.3033 1.79392 26.5597 2.92046 27.4386 4.32215C28.3176 5.72383 28.7838 7.3441 28.7838 8.99774V9.00019Z" fill="#F79E1B"/>
</svg>
