<svg width="85" height="16" viewBox="0 0 85 16" fill="none" xmlns="http://www.w3.org/2000/svg">
<g clip-path="url(#clip0_3531_1401)">
<path d="M4.09385 8.464L1.73139 13.712H0L2.60518 8.096C1.3754 7.488 0.566343 6.368 0.566343 4.32C0.566343 1.44 2.411 0 4.59547 0H6.82848V13.712H5.33981V8.464H4.09385ZM5.33981 1.248H4.54693C3.34951 1.248 2.18447 2.032 2.18447 4.32C2.18447 6.528 3.25243 7.232 4.54693 7.232H5.33981V1.248Z" fill="#FF0000"/>
<path d="M14.029 4.04769V13.7117H12.5403V9.37569H10.2911V13.7117H8.77008V4.04769H10.2911V8.15969H12.5403V4.04769H14.029ZM21.8122 15.6157H20.4529V13.7117H16.262V15.6157H14.9028V12.4957H15.5015C16.3914 10.4477 16.4885 7.45569 16.4885 4.87969V4.04769H21.0355V12.4957H21.8122V15.6157ZM19.5468 5.26369H17.8639V5.43969C17.8639 7.47169 17.7668 10.4477 16.9578 12.4957H19.563V5.26369H19.5468ZM25.9869 13.8557C23.9643 13.8557 22.7345 12.2717 22.7345 9.29569C22.7345 6.19169 23.6083 3.91969 25.6795 3.91969C27.3138 3.91969 28.3817 5.13569 28.3817 8.41569V9.24769H24.3041C24.3041 11.4397 24.9189 12.5917 26.1325 12.5917C26.9901 12.5917 27.6698 12.2077 28.0581 11.9357L28.4141 13.0877C27.7668 13.5517 26.9578 13.8557 25.9869 13.8557ZM24.3202 7.99969H26.8283C26.8283 6.35169 26.5533 5.13569 25.6795 5.13569C24.741 5.13569 24.4173 6.27169 24.3202 7.99969ZM31.44 8.89569V13.7117H29.9189V4.04769H31.44V8.51169L33.7863 4.04769H35.3235L32.8963 8.59169L35.6633 13.7117H34.0128L31.44 8.89569ZM35.8575 8.87969C35.8575 5.85569 37.0387 3.90369 39.3364 3.90369C40.2102 3.90369 40.7118 4.12769 41.1487 4.39969L40.9384 5.82369C40.5338 5.47169 39.9513 5.15169 39.3202 5.15169C38.2361 5.15169 37.4594 6.36769 37.4594 8.79969C37.4594 11.2157 38.0419 12.5917 39.2717 12.5917C40.016 12.5917 40.5662 12.3037 40.9222 11.9997L41.2782 13.1197C40.7604 13.5677 40.1293 13.8557 39.2393 13.8557C37.1196 13.8557 35.8575 12.1757 35.8575 8.87969Z" fill="#1A1A1A"/>
<path d="M51.5373 13.712H45.5988L45.4694 16H44.7089V12.928H45.1134C45.793 12.368 46.1166 10.832 46.3108 8.88C46.505 6.848 46.5697 3.808 46.6183 0H51.4726V12.928H52.4273V16H51.6668L51.5373 13.712ZM50.5179 0.784H47.5082C47.4435 4.256 47.3464 6.896 47.2008 8.88C47.0228 10.928 46.7153 12.288 46.1975 12.928H50.5179V0.784Z" fill="#1A1A1A"/>
<path d="M56.4566 13.1203C57.7511 13.1203 58.4307 12.0803 58.4307 12.0803L58.722 12.8163C58.722 12.8163 57.9776 13.9043 56.4404 13.9043C54.3692 13.9043 53.4146 12.0483 53.4146 8.88032C53.4146 5.71232 54.612 3.85632 56.2624 3.85632C57.9453 3.85632 59.0294 5.60032 58.722 9.04032H54.3045C54.3369 11.6803 55.0327 13.1203 56.4566 13.1203ZM54.3207 8.32032H57.8644C58.0262 5.74432 57.2495 4.59232 56.2463 4.59232C55.2268 4.60832 54.4016 5.90432 54.3207 8.32032Z" fill="#1A1A1A"/>
<path d="M64.6929 9.05615H61.3596V13.7122H60.4534V4.04816H61.3596V8.32016H64.6929V4.04816H65.5991V13.7122H64.6929V9.05615Z" fill="#1A1A1A"/>
<path d="M67.7668 4.04816H68.673V7.63216H69.385C71.2458 7.63216 72.4432 8.62416 72.4432 10.6402C72.4432 12.6882 71.1649 13.7122 69.3202 13.7122H67.7507V4.04816H67.7668ZM68.673 8.35216V13.0082H69.2555C70.6309 13.0082 71.5694 12.3362 71.5694 10.6722C71.5694 9.04015 70.7604 8.35216 69.3526 8.35216H68.673Z" fill="#1A1A1A"/>
<path d="M74.9191 4.80016V13.7282H74.0291V4.04816H78.1553V4.80016H74.9191Z" fill="#1A1A1A"/>
<path d="M84.1264 6.97616C84.1264 6.48016 84.1587 6.04816 84.2073 5.64816H84.1425C84.0131 6.06416 83.8351 6.48016 83.6247 6.89616L80.437 13.7122H79.6603V4.04816H80.5179V10.7682C80.5179 11.2802 80.4856 11.7122 80.437 12.1282H80.5018C80.6312 11.6802 80.8254 11.2642 81.0196 10.8482L84.2073 4.06416H85.0001V13.7282H84.1264V6.97616Z" fill="#1A1A1A"/>
</g>
<defs>
<clipPath id="clip0_3531_1401">
<rect width="85" height="16" fill="white"/>
</clipPath>
</defs>
</svg>
