<svg width="24" height="24" viewBox="0 0 24 24" fill="none" xmlns="http://www.w3.org/2000/svg">
<path d="M2 12C2 7.28595 2 4.92893 3.46447 3.46447C4.92893 2 7.28595 2 12 2C16.714 2 19.0711 2 20.5355 3.46447C22 4.92893 22 7.28595 22 12C22 16.714 22 19.0711 20.5355 20.5355C19.0711 22 16.714 22 12 22C7.28595 22 4.92893 22 3.46447 20.5355C2 19.0711 2 16.714 2 12Z" fill="#999999"/>
<path d="M2 12C2 7.28595 2 4.92893 3.46447 3.46447C4.92893 2 7.28595 2 12 2C16.714 2 19.0711 2 20.5355 3.46447C22 4.92893 22 7.28595 22 12C22 16.714 22 19.0711 20.5355 20.5355C19.0711 22 16.714 22 12 22C7.28595 22 4.92893 22 3.46447 20.5355C2 19.0711 2 16.714 2 12Z" fill="#EE8208"/>
<path d="M16.5577 12.2775C16.3388 11.8488 15.7212 11.4878 14.9003 12.097C13.7823 12.9544 11.9998 12.9544 11.9998 12.9544C11.9998 12.9544 10.2173 12.9544 9.09933 12.097C8.27844 11.4878 7.66082 11.8488 7.44191 12.2775C7.05101 13.0296 7.48882 13.3981 8.48171 14.0073C9.33387 14.5338 10.4987 14.7293 11.2493 14.8045L10.6238 15.4062C9.73259 16.2561 8.87261 17.0759 8.28626 17.6475C7.93445 17.9934 7.93445 18.5424 8.28626 18.8658L8.39571 18.9862C8.74752 19.3246 9.32605 19.3246 9.67786 18.9862L11.9998 16.7449C12.8989 17.5948 13.751 18.4146 14.3452 18.9862C14.697 19.3246 15.2677 19.3246 15.6274 18.9862L15.729 18.8658C16.0886 18.5424 16.0886 17.9934 15.729 17.6475L13.3992 15.4062L12.7816 14.797C13.5243 14.7293 14.6736 14.5263 15.5179 14.0073C16.5108 13.3981 16.9486 13.0296 16.5577 12.2775ZM11.9998 6.13289C13.0787 6.13289 13.9543 6.97524 13.9543 8.00561C13.9543 9.0435 13.0787 9.87832 11.9998 9.87832C10.9209 9.87832 10.0453 9.0435 10.0453 8.00561C10.0453 6.97524 10.9209 6.13289 11.9998 6.13289ZM11.9998 11.8112C14.1888 11.8112 15.9557 10.1115 15.9557 8.00561C15.9557 5.90727 14.1888 4.20001 11.9998 4.20001C9.81077 4.20001 8.0439 5.90727 8.0439 8.00561C8.0439 10.1115 9.81077 11.8112 11.9998 11.8112Z" fill="white"/>
</svg>
