<svg width="24" height="24" viewBox="0 0 24 24" fill="none" xmlns="http://www.w3.org/2000/svg">
<path d="M15.07 2H8.93C3.33 2 2 3.33 2 8.93V15.07C2 20.67 3.33 22 8.93 22H15.07C20.67 22 22 20.67 22 15.07C22 9.47 22 8.93 22 8.93C22 3.33 20.67 2 15.07 2Z" fill="#999999"/>
<path d="M15.07 2H8.93C3.33 2 2 3.33 2 8.93V15.07C2 20.67 3.33 22 8.93 22H15.07C20.67 22 22 20.67 22 15.07C22 9.47 22 8.93 22 8.93C22 3.33 20.67 2 15.07 2Z" fill="#4680C2"/>
<path d="M16.43 16H17.9029C18.3266 16 18.5284 15.7881 18.4174 15.3745C18.2863 14.9609 17.802 14.3657 17.1765 13.6494C16.8335 13.256 16.319 12.8121 16.1677 12.6003C15.9458 12.3077 16.0063 12.1967 16.1677 11.9445C16.1475 11.9445 17.9433 9.41236 18.1248 8.55486C18.2257 8.24212 18.1248 8.01009 17.681 8.01009H16.2383C15.8449 8.01009 15.6835 8.21185 15.5826 8.42371C15.5826 8.42371 14.826 10.2497 13.7667 11.43C13.4338 11.773 13.2724 11.884 13.0908 11.884C12.9899 11.884 12.8588 11.773 12.8588 11.4603V8.54477C12.8588 8.16141 12.7478 8 12.4351 8H10.1248C9.89281 8 9.75158 8.16141 9.75158 8.343C9.75158 8.69609 10.2863 8.78689 10.3367 9.77554V11.9445C10.3367 12.4086 10.256 12.4994 10.0643 12.4994C9.56999 12.4994 8.35939 10.6835 7.63304 8.56494C7.4918 8.16141 7.35057 8 6.9773 8H5.49433C5.07062 8 5 8.20177 5 8.41362C5 8.79697 5.49433 10.7339 7.3203 13.2963C8.53089 15.0416 10.256 15.9899 11.8096 15.9899C12.7478 15.9899 12.8588 15.768 12.8588 15.4149V14.0933C12.8588 13.6696 12.9496 13.5889 13.2421 13.5889C13.454 13.5889 13.8373 13.71 14.7251 14.5473C15.7037 15.546 15.8752 16 16.43 16Z" fill="white"/>
</svg>
