<svg width="24" height="24" viewBox="0 0 24 24" fill="none" xmlns="http://www.w3.org/2000/svg">
<rect x="2" y="2" width="20" height="20" rx="5" fill="#999999"/>
<rect x="2" y="2" width="20" height="20" rx="5" fill="#FF0000"/>
<path d="M17.736 9.24C17.814 9.50857 17.868 9.86857 17.904 10.3257C17.946 10.7829 17.964 11.1771 17.964 11.52L18 12C18 13.2514 17.904 14.1714 17.736 14.76C17.586 15.2743 17.238 15.6057 16.698 15.7486C16.416 15.8229 15.9 15.8743 15.108 15.9086C14.328 15.9486 13.614 15.9657 12.954 15.9657L12 16C9.486 16 7.92 15.9086 7.302 15.7486C6.762 15.6057 6.414 15.2743 6.264 14.76C6.186 14.4914 6.132 14.1314 6.096 13.6743C6.054 13.2171 6.036 12.8229 6.036 12.48L6 12C6 10.7486 6.096 9.82857 6.264 9.24C6.414 8.72571 6.762 8.39429 7.302 8.25143C7.584 8.17714 8.1 8.12571 8.892 8.09143C9.672 8.05143 10.386 8.03429 11.046 8.03429L12 8C14.514 8 16.08 8.09143 16.698 8.25143C17.238 8.39429 17.586 8.72571 17.736 9.24Z" fill="white"/>
<path d="M14.5 12.202L10.5 14.4041V10L14.5 12.202Z" fill="#999999"/>
<path d="M14.5 12.202L10.5 14.4041V10L14.5 12.202Z" fill="#FF0000"/>
</svg>
