<svg width="24" height="24" viewBox="0 0 24 24" fill="none" xmlns="http://www.w3.org/2000/svg">
<path fill-rule="evenodd" clip-rule="evenodd" d="M0 2C0 1.44772 0.447715 1 1 1H4.5C4.95216 1 5.34807 1.30341 5.46562 1.74003L6.31638 4.9H22C22.3068 4.9 22.5966 5.0408 22.7861 5.28196C22.9757 5.52312 23.0442 5.83796 22.9717 6.13605L21.1324 13.7082C20.8057 15.0531 19.6012 16 18.2171 16H9.22575C7.82662 16 6.61327 15.0329 6.30128 13.669L4.57943 6.14157L3.73362 3H1C0.447715 3 0 2.55228 0 2ZM6.80457 6.9L8.25093 13.223C8.35492 13.6776 8.75937 14 9.22575 14H18.2171C18.6785 14 19.08 13.6844 19.1889 13.236L20.728 6.9H6.80457Z" fill="#1A1A1A"/>
<path d="M10 21.5C10 22.3284 9.32843 23 8.5 23C7.67157 23 7 22.3284 7 21.5C7 20.6716 7.67157 20 8.5 20C9.32843 20 10 20.6716 10 21.5Z" fill="#1A1A1A"/>
<path d="M20 21.5C20 22.3284 19.3284 23 18.5 23C17.6716 23 17 22.3284 17 21.5C17 20.6716 17.6716 20 18.5 20C19.3284 20 20 20.6716 20 21.5Z" fill="#1A1A1A"/>
<path fill-rule="evenodd" clip-rule="evenodd" d="M8.55466 14.1679C9.01419 14.4743 9.13836 15.0952 8.83201 15.5547L7.86848 17L20 17C20.5522 17 21 17.4477 21 18C21 18.5523 20.5522 19 20 19H7.86848C6.27109 19 5.3183 17.2197 6.20437 15.8906L7.16791 14.4453C7.47426 13.9858 8.09513 13.8616 8.55466 14.1679Z" fill="#1A1A1A"/>
</svg>
