<svg width="18" height="18" viewBox="0 0 18 18" fill="none" xmlns="http://www.w3.org/2000/svg">
<path fill-rule="evenodd" clip-rule="evenodd" d="M10.7678 2.73223C10.2989 2.26339 9.66304 2 9 2C8.33696 2 7.70107 2.26339 7.23223 2.73223C6.76339 3.20107 6.5 3.83696 6.5 4.5C6.5 5.16304 6.76339 5.79893 7.23223 6.26777C7.70107 6.73661 8.33696 7 9 7C9.66304 7 10.2989 6.73661 10.7678 6.26777C11.2366 5.79893 11.5 5.16304 11.5 4.5C11.5 3.83696 11.2366 3.20107 10.7678 2.73223ZM14.4703 14.3565C13.1742 13.7085 11.2433 13.25 9 13.25C6.75666 13.25 4.82575 13.7085 3.52974 14.3565C2.11462 15.0641 2 15.672 2 15.75C2 15.8881 2.11193 16 2.25 16H15.75C15.8881 16 16 15.8881 16 15.75C16 15.672 15.8854 15.0641 14.4703 14.3565ZM12.182 1.31802C11.3381 0.474106 10.1935 0 9 0C7.80653 0 6.66193 0.474106 5.81802 1.31802C4.97411 2.16193 4.5 3.30653 4.5 4.5C4.5 5.69347 4.97411 6.83807 5.81802 7.68198C6.66193 8.52589 7.80653 9 9 9C10.1935 9 11.3381 8.52589 12.182 7.68198C13.0259 6.83807 13.5 5.69347 13.5 4.5C13.5 3.30653 13.0259 2.16193 12.182 1.31802ZM18 15.75C18 13.2638 13.9725 11.25 9 11.25C4.0275 11.25 0 13.2638 0 15.75C0 16.9926 1.00736 18 2.25 18H15.75C16.9926 18 18 16.9926 18 15.75Z" fill="#1A1A1A"/>
</svg>
