<svg width="24" height="24" viewBox="0 0 24 24" fill="none" xmlns="http://www.w3.org/2000/svg">
<path fill-rule="evenodd" clip-rule="evenodd" d="M10.5 17C14.0899 17 17 14.0899 17 10.5C17 6.91015 14.0899 4 10.5 4C6.91015 4 4 6.91015 4 10.5C4 14.0899 6.91015 17 10.5 17ZM10.5 19C15.1944 19 19 15.1944 19 10.5C19 5.80558 15.1944 2 10.5 2C5.80558 2 2 5.80558 2 10.5C2 15.1944 5.80558 19 10.5 19Z" fill="white"/>
<path fill-rule="evenodd" clip-rule="evenodd" d="M17.7071 17.2929C18.0976 16.9024 18.7308 16.9024 19.1213 17.2929L21.7071 19.8787C22.0976 20.2692 22.0976 20.9024 21.7071 21.2929C21.3166 21.6834 20.6834 21.6834 20.2929 21.2929L17.7071 18.7071C17.3166 18.3166 17.3166 17.6834 17.7071 17.2929Z" fill="white"/>
</svg>
