<svg width="85" height="20" viewBox="0 0 85 20" xmlns="http://www.w3.org/2000/svg">
<path d="M12.818 19.13L11.931 16.205H5.33128L4.44432 19.13H0L6.04179 0.5H11.2205L17.2623 19.13H12.818ZM6.54726 12.21H10.7102L8.63114 5.37L6.54726 12.21Z"/>
<path d="M38.5874 5.825H42.3927V19.13H38.5874V17.88C37.7004 18.97 36.432 19.5 34.8059 19.5C33.1321 19.5 31.7111 18.835 30.5142 17.475C29.322 16.12 28.7355 14.44 28.7355 12.47C28.7355 10.5 29.3173 8.85 30.5142 7.495C31.7063 6.14 33.1274 5.445 34.8059 5.445C36.432 5.445 37.7004 5.975 38.5874 7.07V5.825V5.825ZM35.5689 15.725C36.4558 15.725 37.195 15.43 37.7529 14.845C38.3108 14.26 38.5922 13.46 38.5922 12.475C38.5922 11.49 38.3108 10.69 37.7529 10.105C37.195 9.52 36.4606 9.225 35.5689 9.225C34.6819 9.225 33.9428 9.52 33.3849 10.105C32.8269 10.69 32.5456 11.49 32.5456 12.475C32.5456 13.46 32.8269 14.26 33.3849 14.845C33.9428 15.43 34.6819 15.725 35.5689 15.725Z"/>
<path d="M55.4872 6.915C56.4028 7.9 56.8558 9.23 56.8558 10.96V19.13H53.0505V11.545C53.0505 9.975 52.1349 9.125 50.8426 9.125C49.3978 9.125 48.4822 10.055 48.4822 11.865V19.13H44.6769V5.825H48.4822V7.075C49.2452 5.985 50.4612 5.45 52.1111 5.45C53.4558 5.45 54.5955 5.93 55.4872 6.915Z"/>
<path d="M65.0673 19.5C63.1885 19.5 61.591 18.835 60.294 17.475C59.0017 16.12 58.3389 14.44 58.3389 12.47C58.3389 10.5 58.9969 8.85 60.294 7.495C61.5863 6.14 63.1885 5.445 65.0673 5.445C66.9461 5.445 68.5436 6.135 69.8407 7.495C71.133 8.85 71.7958 10.5 71.7958 12.47C71.7958 14.44 71.1377 16.115 69.8407 17.475C68.5484 18.835 66.9461 19.5 65.0673 19.5ZM65.0673 15.615C65.9066 15.615 66.5885 15.325 67.1464 14.735C67.7044 14.15 67.9857 13.405 67.9857 12.475C67.9857 11.545 67.7044 10.8 67.1464 10.215C66.5885 9.63 65.9018 9.335 65.0673 9.335C64.2328 9.335 63.5461 9.625 62.9882 10.215C62.4303 10.8 62.149 11.545 62.149 12.475C62.149 13.405 62.4303 14.15 62.9882 14.735C63.5461 15.325 64.2328 15.615 65.0673 15.615Z"/>
<path d="M80.7846 5.825H85L80.3029 19.13H75.9874L71.2903 5.825H75.5057L78.1475 14.26L80.7846 5.825Z"/>
<path d="M23.8381 10.88C25.5882 11.28 27.901 12.235 27.8724 15.14C27.8724 16.575 27.3669 17.67 26.3512 18.415C25.3355 19.13 24.0956 19.5 22.5983 19.5C19.9327 19.5 18.5259 18.575 17.391 16.82L20.2808 14.49C20.8101 15.63 21.2583 16.03 22.4314 16.03C23.347 16.03 23.9669 15.67 23.9669 15.11C23.9669 14.58 22.975 14.26 21.759 13.94C20.009 13.435 17.7248 12.53 17.7248 9.815C17.7248 8.43 18.2064 7.365 19.1459 6.595C20.1091 5.825 21.3013 5.45 22.6985 5.45C24.8062 5.45 26.3369 6.51 27.2334 7.665L24.439 10.095C24.0337 9.325 23.6331 8.87 22.7175 8.84C22.007 8.82 21.6303 9.2 21.6303 9.705C21.6303 10.24 22.6222 10.535 23.8381 10.88Z"/>
</svg>
